<svg class="company_splashscreen"version="1.0" xmlns="http://www.w3.org/2000/svg"
width="68.01" height="101.01" viewBox="0 0 300.000000 277.000000"

 preserveAspectRatio="xMidYMid meet"> 

<g id="icon_group" transform="translate(0.000000,277.000000) scale(0.100000,-0.100000)"
fill=""
stroke="#d95d50" stroke-miterlimit="10" stroke-width="2.15"
>
<path path class="c_group" d="M1387 2698 c-359 -22 -684 -166 -934 -415 -259 -256 -383 -546 -383
-893 0 -309 96 -560 314 -822 167 -200 482 -386 761 -449 419 -93 847 -16
1194 215 295 197 502 504 566 838 22 120 20 336 -6 461 -63 311 -260 607 -534
802 -86 61 -274 156 -375 190 -179 59 -398 86 -603 73z m413 -43 c297 -66 530
-192 731 -394 118 -119 179 -201 248 -338 321 -640 3 -1416 -701 -1707 -459
-190 -1005 -141 -1402 126 -161 109 -279 225 -376 370 -77 115 -109 179 -150
297 -42 123 -60 238 -60 386 0 253 66 464 213 685 69 104 251 282 365 357 165
109 387 196 582 228 116 19 446 13 550 -10z"
fill=""
stroke="#d95d50" stroke-miterlimit="10" stroke-width="2.15"
/>
<path path class="c_group" d="M1400 2659 c-265 -18 -520 -104 -737 -250 -99 -67 -274 -241 -340
-339 -100 -150 -159 -291 -192 -465 -56 -288 9 -618 169 -856 294 -437 788
-668 1328 -620 143 12 203 24 337 68 401 129 732 448 855 824 108 330 69 680
-110 984 -53 90 -87 132 -185 231 -66 66 -150 141 -187 167 -81 57 -279 157
-368 185 -176 57 -385 83 -570 71z m390 -44 c175 -38 364 -117 514 -215 161
-105 348 -315 435 -488 133 -265 159 -596 67 -874 -117 -354 -399 -647 -763
-792 -620 -247 -1349 -42 -1703 479 -424 625 -184 1437 524 1775 146 69 279
109 451 134 69 10 402 -3 475 -19z"
fill=""
stroke="#d95d50" stroke-miterlimit="10" stroke-width="2.15"
/>
<path path class="c_group" d="M780 1725 l0 -695 364 -2 364 -3 -89 -240 c-49 -132 -98 -264 -109
-292 l-20 -53 144 0 144 0 37 110 37 110 177 0 178 0 38 -110 37 -110 143 0
142 0 -193 517 c-107 285 -201 537 -210 561 l-16 42 -121 0 -122 0 -46 -128
-46 -127 -252 -3 -251 -2 0 560 0 560 -165 0 -165 0 0 -695z m1330 -672 c101
-269 191 -510 201 -536 l19 -48 -116 3 -116 3 -38 105 -37 105 -194 3 -195 2
-35 -107 -35 -108 -118 -3 c-110 -2 -118 -1 -111 15 4 10 92 247 197 528 104
280 192 513 194 517 3 4 49 8 103 8 l98 0 183 -487z"
fill=""
stroke="#d95d50" stroke-miterlimit="10" stroke-width="2.15"

/>
<path path class="c_group" d="M1758 1060 l-66 -200 134 0 c74 0 134 3 134 7 0 13 -122 378 -129
385 -4 4 -36 -82 -73 -192z m125 -32 l46 -138 -101 0 c-76 0 -99 3 -95 13 2 6
24 72 48 144 24 73 46 129 50 125 3 -4 27 -69 52 -144z"
fill=""
stroke="#d95d50" stroke-miterlimit="10" stroke-width="2.15"

/>
</g> 
</svg>