<?xml version="1.0" encoding="utf-8"?>
<!-- Generator: Adobe Illustrator 23.0.2, SVG Export Plug-In . SVG Version: 6.00 Build 0)  -->
<svg version="1.1" id="Logos" xmlns="http://www.w3.org/2000/svg" xmlns:xlink="http://www.w3.org/1999/xlink" x="0px" y="0px"
	 viewBox="0 0 566.9 566.9" style="enable-background:new 0 0 566.9 566.9;" xml:space="preserve">
<style type="text/css">
	.st0{fill:#FFFF00;stroke:#000000;stroke-miterlimit:10;}
	.st1{fill:none;stroke:#000000;stroke-width:5;stroke-miterlimit:10;}
</style>
<g id="Logo">
	<path class="st0" d="M326,345.5c-1-1.5-1.9-2.9-2.7-4.3c-1.5-2.4-2.9-4.9-4.3-7.3c-3.2-5.9-6.3-11.8-9.4-17.7
		c-4.3-8-8.6-15.9-12.9-23.9c-1.2-2.3-0.2-4.5,2.4-5.1c1.8-0.4,3.7-0.7,5.6-1c0.3-0.1,0.5-0.3,0.8-0.5c-0.3-0.3-0.5-0.5-0.9-0.6
		c-0.4-0.1-0.7-0.1-1.1,0h-30.6c-0.3,0-0.6,0-0.9,0c-0.4,0.2-0.7,0.4-1,0.7c0.3,0.2,0.6,0.4,1,0.5c2.1,0.3,4.2,0.5,6.2,1
		c4.4,1,5.7,4.9,4.9,8.5c-1.3,6-5.8,8.7-11.2,10.1c-5.2,1.4-10.3,0.9-15.2-1.2c-5.1-2.2-9-5.7-11.8-10.4c-3.1-5.1-4.5-11-4-16.9
		c0.5-6.6,3-13,7.3-18.1c3.6-4.4,7.9-7.6,13.5-8.8c7.3-1.6,14.3-1.1,20.7,3.3c3.5,2.4,5.9,5.7,7.9,9.3c0.7,1.3,1.3,2.7,2,3.9
		c0.3,0.5,0.9,0.8,1.3,1.2l0.6-0.3c-0.2-6.1-0.5-12.1-0.7-18.7c-0.8,0.5-1.6,0.6-1.9,1.1c-1.2,1.9-2.8,2.1-4.9,1.5
		c-3.8-1.1-7.7-2.2-11.7-3c-4.2-0.9-8.5-0.7-12.8-0.4c-4.7,0.3-9.3,1.3-13.7,3c-10.2,3.9-17.5,10.6-20.2,21.4
		c-2,8.2-0.8,16.1,4.3,23c3.3,4.5,7.9,7.4,13.1,9.2c4.3,1.5,8.9,2.5,13.4,2.8c8.9,0.8,17.5-0.1,26-3c0.1,0,0.2,0,0.4,0.1
		c-0.4,0.9-0.9,1.7-1.3,2.5c-4.7,9.3-9.3,18.5-14,27.8c-2,3.9-4.2,7.6-8,10c-1.6,1-3.7,1.4-5.6,2.1c-0.4,0.2-0.7,0.4-1.1,0.6
		c0.4,0.2,0.7,0.6,1.1,0.6c7.5,0,15,0,22.5,0c0.4,0,0.7-0.4,1.1-0.6c-0.3-0.3-0.7-0.5-1.1-0.6c-1.1-0.3-2.2-0.5-3.2-0.9
		c-3.6-1.2-5.4-4.1-4.1-7.6c1.7-4.3,3.9-8.5,6-12.7c0.2-0.4,1.1-0.7,1.6-0.7c7,0,13.9,0,20.9,0c1.3,0,1.9,0.9,2.3,1.8
		c1.5,2.9,3,5.8,4.4,8.8c0.8,1.5,1.4,3,2,4.6c0.6,2-0.2,4.1-2.2,4.9c-2.1,0.8-4.3,1.2-6.5,1.9c-0.4,0.2-0.8,0.4-1.2,0.6
		c0.5,0.2,0.9,0.6,1.4,0.6c6.1,0,12.2,0,18.4,0h1.6l0.2,0.4c-1.7,1.2-3.4,2.4-5.1,3.4c-8.2,5.1-17.5,8.2-27.2,9.2
		c-17.5,1.8-33.5-2.3-47.6-12.9c-13.3-9.9-21.6-23.1-24.3-39.4c-2.9-17.6,1.4-33.7,12.7-47.7c10.6-13.1,24.5-21.1,41.4-23.7
		c4.2-0.6,8.5-1.1,12.7-0.9c14,0.6,26.7,4.8,37.9,13.3c12.4,9.4,20.7,21.6,23.8,36.7c3.6,17.7-0.1,33.9-10.8,48.5
		c-1.9,2.6-7.3,8.8-7.7,9.5C326.4,345.2,326.2,345.4,326,345.5z M300.8,323.4h-21.5c3.5-7,6.8-13.8,10.2-20.6l0.5,0L300.8,323.4z"/>
</g>
<ellipse class="st1" cx="281.1" cy="299.4" rx="75.3" ry="72.5"/>
</svg>
