<svg id="Logos" xmlns="http://www.w3.org/2000/svg" viewBox="0 0 166.7 166.4"><title>GR_Logo_Shell - Copy</title><g id="Logo"><path d="M131.7,134.7c-1.1-1.7-2.1-3.2-3-4.8s-3.2-5.5-4.7-8.3l-10.2-19.9c-4.7-9-9.4-18-14-27a3.9,3.9,0,0,1,1.1-5.3l1.5-.5c2-.5,4-.7,6.1-1.1l.9-.6-1-.7H72.9l-1.1.7a3,3,0,0,0,1.1.6c2.3.4,4.6.6,6.8,1.1,4.8,1.1,6.2,5.5,5.4,9.6-1.4,6.8-6.3,9.8-12.2,11.4a25,25,0,0,1-16.6-1.3A28.5,28.5,0,0,1,43.5,76.9a32.9,32.9,0,0,1-4.4-19.1A36.6,36.6,0,0,1,47,37.3c3.9-5,8.6-8.5,14.7-10,7.9-1.7,15.5-1.1,22.5,3.8,3.8,2.7,6.3,6.4,8.6,10.5.8,1.4,1.4,3,2.2,4.4a6.2,6.2,0,0,0,1.4,1.4L97,47c-.2-6.8-.5-13.6-.7-21.1-.9.6-1.8.8-2,1.3-1.3,2.1-3.1,2.4-5.4,1.7-4.2-1.3-8.4-2.5-12.7-3.4a46.3,46.3,0,0,0-13.9-.4,51.7,51.7,0,0,0-15,3.3c-11.1,4.4-19,12-21.9,24.2-2.2,9.3-.9,18.1,4.7,26A30.7,30.7,0,0,0,44.3,89,57.7,57.7,0,0,0,59,92.2a66.1,66.1,0,0,0,28.2-3.4h.4c-.4,1-.9,1.9-1.3,2.8C81.2,102.2,76.2,112.6,71,123c-2.1,4.4-4.6,8.7-8.7,11.3-1.8,1.2-4,1.6-6,2.4l-1.2.7c.4.2.8.7,1.2.7H80.8c.4,0,.8-.5,1.2-.7l-1.2-.7-3.5-1c-3.9-1.3-5.9-4.6-4.4-8.5s4.3-9.6,6.6-14.3a2.3,2.3,0,0,1,1.7-.8H104c1.4,0,2,1,2.5,2,1.7,3.3,3.3,6.5,4.8,9.8a33.8,33.8,0,0,1,2.2,5.2,4.5,4.5,0,0,1-2.4,5.5c-2.3.8-4.7,1.5-7.1,2.1l-1.3.7,1.5.7h21.7l.2.4-5.5,3.9A69.9,69.9,0,0,1,91,152.7c-19,2-36.5-2.7-51.8-14.6s-23.5-26-26.4-44.4,1.5-38,13.8-53.7,26.6-23.8,45-26.7a69.7,69.7,0,0,1,13.7-1c15.2.8,29.1,5.5,41.3,15s22.5,24.3,25.9,41.5c4,19.8-.1,38.2-11.7,54.6-2.1,3-8,10-8.5,10.8A1.5,1.5,0,0,1,131.7,134.7Zm-27.4-24.9H80.9c3.8-7.9,7.5-15.5,11.1-23.2h.6Z" transform="translate(0.5 0.5)" fill="gray" stroke="#000" stroke-miterlimit="10" stroke-width="2"/></g><ellipse cx="83.3" cy="83.2" rx="81.8" ry="81.7" fill="none" stroke="#000" stroke-miterlimit="10" stroke-width="3"/></svg>