<?xml version="1.0" encoding="utf-8"?>
<!-- Generator: Adobe Illustrator 23.0.1, SVG Export Plug-In . SVG Version: 6.00 Build 0)  -->
<svg version="1.1" id="Logos" xmlns="http://www.w3.org/2000/svg" xmlns:xlink="http://www.w3.org/1999/xlink" x="0px" y="0px"
	 viewBox="0 0 166.7 166.4" style="enable-background:new 0 0 166.7 166.4;" xml:space="preserve">
<style type="text/css">
	.st0{fill:#FFFFFF;stroke:#000000;stroke-width:2;stroke-miterlimit:10;}
	.st1{fill:none;stroke:#000000;stroke-width:3;stroke-miterlimit:10;}
</style>
<title>GR_Logo_Shell - Copy</title>
<g id="Logo">
	<path class="st0" d="M132.2,135.2c-1.1-1.7-2.1-3.2-3-4.8s-3.2-5.5-4.7-8.3l-10.2-19.9c-4.7-9-9.4-18-14-27
		c-1.1-1.8-0.6-4.1,1.1-5.3l1.5-0.5c2-0.5,4-0.7,6.1-1.1l0.9-0.6l-1-0.7H73.4l-1.1,0.7c0.3,0.3,0.7,0.5,1.1,0.6
		c2.3,0.4,4.6,0.6,6.8,1.1c4.8,1.1,6.2,5.5,5.4,9.6c-1.4,6.8-6.3,9.8-12.2,11.4c-5.5,1.5-11.4,1-16.6-1.3
		c-5.4-2.5-9.9-6.6-12.8-11.7c-3.4-5.8-4.9-12.4-4.4-19.1c0.5-7.5,3.2-14.6,7.9-20.5c3.9-5,8.6-8.5,14.7-10
		c7.9-1.7,15.5-1.1,22.5,3.8c3.8,2.7,6.3,6.4,8.6,10.5c0.8,1.4,1.4,3,2.2,4.4c0.4,0.5,0.9,1,1.4,1.4l0.6-0.4
		c-0.2-6.8-0.5-13.6-0.7-21.1c-0.9,0.6-1.8,0.8-2,1.3c-1.3,2.1-3.1,2.4-5.4,1.7c-4.2-1.3-8.4-2.5-12.7-3.4c-4.6-0.8-9.3-1-13.9-0.4
		c-5.1,0.3-10.2,1.5-15,3.3c-11.1,4.4-19,12-21.9,24.2c-2.2,9.3-0.9,18.1,4.7,26c3.6,4.8,8.6,8.4,14.2,10.4
		c4.7,1.7,9.7,2.8,14.7,3.2c9.5,0.9,19.2-0.2,28.2-3.4h0.4c-0.4,1-0.9,1.9-1.3,2.8c-5.1,10.6-10.1,21-15.3,31.4
		c-2.1,4.4-4.6,8.7-8.7,11.3c-1.8,1.2-4,1.6-6,2.4l-1.2,0.7c0.4,0.2,0.8,0.7,1.2,0.7h24.5c0.4,0,0.8-0.5,1.2-0.7l-1.2-0.7l-3.5-1
		c-3.9-1.3-5.9-4.6-4.4-8.5s4.3-9.6,6.6-14.3c0.4-0.5,1-0.8,1.7-0.8h22.8c1.4,0,2,1,2.5,2c1.7,3.3,3.3,6.5,4.8,9.8
		c0.9,1.7,1.6,3.4,2.2,5.2c0.7,2.2-0.3,4.5-2.4,5.5c-2.3,0.8-4.7,1.5-7.1,2.1l-1.3,0.7l1.5,0.7h21.7l0.2,0.4l-5.5,3.9
		c-9,5.6-19.1,9.2-29.6,10.3c-19,2-36.5-2.7-51.8-14.6s-23.5-26-26.4-44.4s1.5-38,13.8-53.7s26.6-23.8,45-26.7
		c4.5-0.8,9.1-1.1,13.7-1c15.2,0.8,29.1,5.5,41.3,15s22.5,24.3,25.9,41.5c4,19.8-0.1,38.2-11.7,54.6c-2.1,3-8,10-8.5,10.8
		C132.6,134.9,132.4,135.1,132.2,135.2z M104.8,110.3H81.4c3.8-7.9,7.5-15.5,11.1-23.2h0.6L104.8,110.3z"/>
</g>
<ellipse class="st1" cx="83.3" cy="83.2" rx="81.8" ry="81.7"/>
</svg>
