<?xml version="1.0" encoding="utf-8"?>
<svg class="company_splashscreen" version="1.0" xmlns="http://www.w3.org/2000/svg"
width="68.01" height="101.01" viewBox="0 0 300.000000 277.000000" preserveAspectRatio="xMidYMid meet">
<g transform="translate(0.000000,277.000000) scale(0.100000,-0.100000)" 
id="icon_group"
fill="grey"
>
<path class="c_group" d="M1275 2685 c-291 -46 -529 -154 -756 -341 -142 -118 -262 -278 -340
-454 -175 -395 -133 -839 113 -1197 69 -101 220 -253 329 -331 278 -199 619
-293 982 -270 783 48 1380 693 1309 1413 -48 481 -350 873 -832 1078 -238 101
-557 141 -805 102z m381 -16 c261 -25 522 -128 739 -292 382 -287 572 -767
479 -1213 -113 -550 -585 -964 -1191 -1045 -117 -15 -381 -6 -483 16 -497 110
-881 425 -1034 847 -151 416 -71 846 224 1205 104 126 274 255 445 338 267
129 521 174 821 144z"/>
<path class="c_group" d="M1330 2649 c-322 -36 -625 -178 -842 -392 -114 -112 -178 -200 -248
-342 -93 -190 -123 -315 -123 -520 0 -291 90 -536 282 -768 258 -314 660 -497
1092 -497 395 0 748 141 1013 405 248 247 367 525 366 860 0 187 -31 331 -105
490 -146 314 -427 565 -774 689 -198 71 -446 99 -661 75z m305 -20 c232 -20
460 -99 660 -230 87 -56 257 -217 326 -308 56 -74 147 -253 179 -351 59 -184
66 -446 17 -630 -126 -476 -516 -825 -1047 -937 -65 -14 -131 -18 -275 -18
-211 0 -279 10 -465 70 -451 146 -791 518 -874 955 -20 104 -21 323 -2 422 86
447 431 819 896 966 131 41 180 51 290 61 137 12 162 12 295 0z" 
/>
<path class="c_group" d="M750 1750 l0 -660 330 0 c234 0 330 -3 330 -11 0 -6 -52 -149 -115
-319 -63 -169 -115 -312 -115 -319 0 -8 40 -11 133 -11 l133 0 40 123 40 122
219 0 218 0 41 -120 41 -120 138 -3 c77 -1 137 1 135 6 -1 4 -104 279 -228
610 l-225 601 -120 1 -120 0 -61 -168 -61 -167 -234 0 -234 0 -3 548 -2 547
-140 0 -140 0 0 -660z m1066 -632 c37 -112 69 -209 72 -215 3 -10 -30 -13
-143 -13 -113 0 -146 3 -143 13 3 6 35 103 72 215 37 111 69 202 71 202 2 0
34 -91 71 -202z"
stroke="#d95d50"/>

</g>
</svg>
